<?xml version="1.0" encoding="UTF-8" standalone="no"?>
<!-- Created with Inkscape (http://www.inkscape.org/) -->

<svg
   width="22.859118mm"
   height="17.306107mm"
   viewBox="0 0 22.859118 17.306107"
   version="1.1"
   id="svg1"
   xml:space="preserve"
   xmlns:xlink="http://www.w3.org/1999/xlink"
   xmlns="http://www.w3.org/2000/svg"
   xmlns:svg="http://www.w3.org/2000/svg"><defs
     id="defs1"><linearGradient
       id="linearGradient120005"><stop
         style="stop-color:#ff00ff;stop-opacity:1;"
         offset="0"
         id="stop120006" /><stop
         style="stop-color:#00e8ff;stop-opacity:0.98291016;"
         offset="1"
         id="stop120007" /></linearGradient><linearGradient
       xlink:href="#linearGradient120005"
       id="linearGradient120007"
       x1="-52.007633"
       y1="143.8036"
       x2="-27.876457"
       y2="143.8036"
       gradientUnits="userSpaceOnUse"
       gradientTransform="matrix(1,0,0,1.0486855,0,-6.5311546)" /></defs><g
     id="layer1"
     transform="translate(52.007634,-134.1499)"><path
       style="fill:url(#linearGradient120007);fill-rule:evenodd;stroke-width:1.02405"
       d="m -45.689715,151.03463 c 0.0806,-0.45371 0.0442,-0.53194 -0.39269,-0.84564 -0.48145,-0.34568 -0.48145,-0.34568 0.5284,-0.79108 0.65896,-0.29062 1.14231,-0.41862 1.39105,-0.36838 0.90828,0.18346 -0.0209,-0.29141 -3.77025,-1.92677 -3.997613,-1.74366 -3.997613,-1.74366 -3.34925,-2.04309 0.64836,-0.29944 0.64836,-0.29944 -0.0713,-0.72653 -0.90224,-0.53547 -0.90566,-0.5188 0.20831,-1.01447 2.59951,-1.15662 2.44128,-1.03312 2.03849,-1.59112 -0.41161,-0.57021 -0.4329,-0.54831 1.19617,-1.23067 0.7685,-0.32189 0.79119,-0.34688 0.71398,-0.78653 -0.0808,-0.45988 10.21515,-5.35957 10.35184,-4.9263 0.20878,0.66182 0.32514,0.66012 1.81101,-0.0265 1.72728,-0.79821 1.66258,-0.79517 1.66258,-0.0783 0,0.71481 -0.008,0.71486 1.60244,-0.009 1.53893,-0.69211 1.45064,-0.71656 1.21873,0.33758 -0.10095,0.45886 -0.16048,0.8343 -0.13228,0.8343 0.0282,0 0.37101,-0.13317 0.76182,-0.29594 0.3908,-0.16276 0.7379,-0.26703 0.77134,-0.23171 0.0527,0.0557 -2.48798,7.53198 -2.65907,7.82449 -0.0352,0.0602 0.12248,0.0699 0.35036,0.0218 1.16935,-0.24712 2.07848,0.99749 1.43629,1.96628 -0.19827,0.29909 -0.24104,0.3119 -0.35063,0.10498 -0.20002,-0.37766 -0.25647,-0.35671 -6.26699,2.32654 -10.25512,4.57813 -9.17209,4.1621 -9.05038,3.47659 z m -0.21067,-8.36413 c 2.14733,-0.95877 3.99424,-1.74322 4.10425,-1.74322 0.17575,0 1.28516,0.47055 6.89371,2.92391 1.41156,0.61746 1.44816,0.62903 1.32516,0.41874 -0.0465,-0.0796 0.0642,-0.21635 0.24611,-0.30392 0.3192,-0.15367 2.2096,-8.41113 1.98091,-8.65278 -0.038,-0.0402 -0.53926,0.13377 -1.11387,0.38652 -1.04475,0.45957 -1.04475,0.45957 -1.06242,2.51662 -0.0177,2.05704 -0.0177,2.05704 -0.22025,-0.4858 -0.11142,-1.39857 -0.22758,-2.57046 -0.25813,-2.60421 -0.0689,-0.0761 -2.39267,0.89961 -2.38953,1.00334 10e-4,0.0413 0.21604,0.79087 0.47731,1.66563 0.62684,2.09875 0.55087,2.0588 -0.41405,-0.21767 -0.4424,-1.04373 -0.84757,-1.9259 -0.90037,-1.96038 -0.14978,-0.0978 -9.11217,3.92943 -9.17286,4.12182 -0.0949,0.301 0.18041,0.19915 3.66262,-1.35466 3.82055,-1.70479 3.58655,-1.63272 3.87708,-1.19421 1.7653,2.66443 2.08259,3.23232 1.27666,2.28501 -1.98498,-2.33321 -1.1945,-2.32527 -6.27488,-0.063 -2.47377,1.10154 -4.49579,2.04018 -4.49339,2.08586 0.0361,0.68499 0.29034,0.62703 3.49537,-0.7968 3.12556,-1.38852 3.12556,-1.38852 5.14169,-0.13046 2.68804,1.67735 2.73374,1.78744 0.15965,0.38457 -2.26116,-1.23233 -2.22747,-1.24084 -10.85982,2.74415 -0.33977,0.15685 -0.33977,0.15685 0,0.43273 0.4688,0.38063 0.19261,0.46996 4.51905,-1.46178 z"
       id="path120000" /></g></svg>
